<svg xmlns="http://www.w3.org/2000/svg" viewBox="0 0 32 32" fill="#fff">
  <rect width="32" height="32" fill="#333"/>
  <path fill="#fff" d="M16 6c-5.5 0-10 4.5-10 10 0 4.4 2.9 8.2 6.9 9.5.5.1.7-.2.7-.5v-1.8c-2.8.6-3.4-1.3-3.4-1.3-.5-1.1-1.1-1.4-1.1-1.4-.9-.6.1-.6.1-.6 1 .1 1.5 1 1.5 1 .9 1.5 2.3 1.1 2.9.8.1-.7.3-1.1.6-1.4-2.2-.3-4.6-1.1-4.6-5 0-1.1.4-2 1-2.7-.1-.3-.4-1.3.1-2.7 0 0 .8-.3 2.7 1 .8-.2 1.6-.3 2.5-.3s1.7.1 2.5.3c1.9-1.3 2.7-1 2.7-1 .5 1.4.2 2.4.1 2.7.6.7 1 1.6 1 2.7 0 3.9-2.4 4.7-4.6 5 .4.3.7 1 .7 2v3c0 .3.2.6.7.5A10 10 0 0 0 26 16c0-5.5-4.5-10-10-10z"/>
</svg>
